<svg width="24" height="24" viewBox="0 0 24 24" fill="none" xmlns="http://www.w3.org/2000/svg">
    <path d="M21 3.99998H17.9C17.4216 1.67358 15.3751 0.003 13 0H11C8.62486 0.003 6.57839 1.67358 6.09998 3.99998H3C2.44772 3.99998 2.00002 4.44769 2.00002 4.99997C2.00002 5.55225 2.44772 6 3 6H3.99998V19C4.00331 21.76 6.23995 23.9967 9 24H15C17.76 23.9967 19.9967 21.76 20 19V6H21C21.5523 6 22 5.5523 22 5.00002C22 4.44773 21.5523 3.99998 21 3.99998ZM11 17C11 17.5523 10.5523 18 10 18C9.4477 18 9 17.5523 9 17V11C9 10.4477 9.4477 10 9.99998 10C10.5523 10 11 10.4477 11 11V17H11ZM15 17C15 17.5523 14.5523 18 14 18C13.4477 18 13 17.5523 13 17V11C13 10.4477 13.4477 10 14 10C14.5523 10 15 10.4477 15 11V17ZM8.17102 3.99998C8.59636 2.80228 9.72905 2.00152 11 1.99997H13C14.271 2.00152 15.4037 2.80228 15.829 3.99998H8.17102Z" fill="white"/>
</svg>