<svg width="16" height="16" viewBox="0 0 16 16" fill="none" xmlns="http://www.w3.org/2000/svg">
    <path d="M12.6667 0.666748H3.33333C2.4496 0.667807 1.60237 1.01934 0.97748 1.64423C0.352588 2.26912 0.00105857 3.11635 0 4.00008L0 12.0001C0.00105857 12.8838 0.352588 13.731 0.97748 14.3559C1.60237 14.9808 2.4496 15.3324 3.33333 15.3334H12.6667C13.5504 15.3324 14.3976 14.9808 15.0225 14.3559C15.6474 13.731 15.9989 12.8838 16 12.0001V4.00008C15.9989 3.11635 15.6474 2.26912 15.0225 1.64423C14.3976 1.01934 13.5504 0.667807 12.6667 0.666748ZM3.33333 2.00008H12.6667C13.0659 2.00087 13.4557 2.12109 13.786 2.34528C14.1163 2.56948 14.3719 2.88738 14.52 3.25808L9.41467 8.36408C9.03895 8.73829 8.53028 8.94839 8 8.94839C7.46972 8.94839 6.96105 8.73829 6.58533 8.36408L1.48 3.25808C1.6281 2.88738 1.88374 2.56948 2.21403 2.34528C2.54432 2.12109 2.93414 2.00087 3.33333 2.00008ZM12.6667 14.0001H3.33333C2.8029 14.0001 2.29419 13.7894 1.91912 13.4143C1.54405 13.0392 1.33333 12.5305 1.33333 12.0001V5.00008L5.64267 9.30675C6.26842 9.93092 7.11617 10.2814 8 10.2814C8.88383 10.2814 9.73158 9.93092 10.3573 9.30675L14.6667 5.00008V12.0001C14.6667 12.5305 14.456 13.0392 14.0809 13.4143C13.7058 13.7894 13.1971 14.0001 12.6667 14.0001Z" fill="white"/>
</svg>
