<svg width="180" height="180" viewBox="0 0 180 180" fill="none" xmlns="http://www.w3.org/2000/svg">
    <path d="M135 45.0001C133.594 43.5941 131.686 42.8042 129.698 42.8042C127.709 42.8042 125.802 43.5941 124.395 45.0001L90.0001 79.3951L55.6051 45.0001C54.1986 43.5941 52.2913 42.8042 50.3026 42.8042C48.3139 42.8042 46.4066 43.5941 45.0001 45.0001C43.5941 46.4066 42.8042 48.3139 42.8042 50.3026C42.8042 52.2913 43.5941 54.1986 45.0001 55.6051L79.3951 90.0001L45.0001 124.395C43.5941 125.802 42.8042 127.709 42.8042 129.698C42.8042 131.686 43.5941 133.594 45.0001 135C46.4066 136.406 48.3139 137.196 50.3026 137.196C52.2913 137.196 54.1986 136.406 55.6051 135L90.0001 100.605L124.395 135C125.802 136.406 127.709 137.196 129.698 137.196C131.686 137.196 133.594 136.406 135 135C136.406 133.594 137.196 131.686 137.196 129.698C137.196 127.709 136.406 125.802 135 124.395L100.605 90.0001L135 55.6051C136.406 54.1986 137.196 52.2913 137.196 50.3026C137.196 48.3139 136.406 46.4066 135 45.0001Z" fill="white"/>
</svg>
