<svg width="96" height="44" viewBox="0 0 96 44" fill="none" xmlns="http://www.w3.org/2000/svg">
    <g clip-path="url(#clip0_26659_2301)">
        <g clip-path="url(#clip1_26659_2301)">
            <g clip-path="url(#clip2_26659_2301)">
                <g clip-path="url(#clip3_26659_2301)">
                    <path d="M29.8629 28.3507C29.2329 28.3612 28.6063 28.2551 28.0149 28.0377C27.5077 27.8502 27.0425 27.5645 26.646 27.1969C26.287 26.8631 26.0037 26.4563 25.8149 26.0039L27.4185 25.3C27.6439 25.7208 27.9795 26.0724 28.3895 26.317C28.7994 26.5616 29.2682 26.69 29.7456 26.6885C30.2278 26.7069 30.7064 26.599 31.134 26.3755C31.2992 26.2956 31.4382 26.1705 31.5352 26.0148C31.6321 25.859 31.6828 25.6789 31.6816 25.4955C31.6881 25.3295 31.6542 25.1644 31.5826 25.0145C31.5111 24.8646 31.4041 24.7343 31.2709 24.635C30.9107 24.3886 30.5053 24.2159 30.0781 24.1266L29.1589 23.892C28.2462 23.6445 27.539 23.2729 27.0372 22.7773C26.8028 22.5638 26.615 22.3043 26.4854 22.0149C26.3559 21.7255 26.2874 21.4125 26.2843 21.0955C26.2843 20.144 26.5907 19.4074 27.2034 18.8858C27.8161 18.3645 28.7221 18.1037 29.9215 18.1036C30.4698 18.0975 31.0151 18.1834 31.5349 18.3578C31.9968 18.5116 32.4226 18.7578 32.7865 19.0813C33.1241 19.3824 33.3769 19.7667 33.5198 20.1959L31.9553 20.9C31.8079 20.5188 31.5214 20.2078 31.1536 20.0298C30.7386 19.8327 30.2832 19.7356 29.8239 19.7462C29.3867 19.7217 28.9537 19.842 28.5918 20.0884C28.4454 20.198 28.3279 20.3417 28.2495 20.5069C28.1711 20.6722 28.1342 20.8541 28.142 21.0369C28.1524 21.165 28.1922 21.289 28.2583 21.3993C28.3245 21.5095 28.4152 21.603 28.5233 21.6724C28.8607 21.9128 29.2432 22.0825 29.6478 22.1711L30.7039 22.4253C31.2755 22.5512 31.8149 22.7942 32.2878 23.1392C32.6755 23.4248 32.996 23.7919 33.2265 24.2146C33.431 24.5967 33.5385 25.0231 33.5394 25.4564C33.5508 26.0066 33.3826 26.5456 33.0602 26.9915C32.7242 27.4411 32.2709 27.7896 31.75 27.9986C31.1511 28.2419 30.5093 28.3616 29.8629 28.3507Z" fill="white"/>
                    <path d="M36.5312 16.2654C36.3841 16.266 36.2385 16.2359 36.1038 16.1769C35.9691 16.118 35.8482 16.0315 35.7488 15.9231C35.6432 15.8201 35.5593 15.6969 35.5022 15.5609C35.4451 15.4248 35.416 15.2787 35.4165 15.1311C35.4135 14.9833 35.4416 14.8364 35.4988 14.7C35.5561 14.5636 35.6412 14.4407 35.7488 14.3392C35.9043 14.1827 36.103 14.0761 36.3193 14.0331C36.5357 13.99 36.76 14.0124 36.9635 14.0974C37.1671 14.1824 37.3407 14.3261 37.4623 14.5103C37.5838 14.6944 37.6476 14.9105 37.6457 15.1311C37.6473 15.4274 37.5313 15.7123 37.3231 15.9231C37.223 16.0332 37.1006 16.1207 36.9641 16.1797C36.8275 16.2387 36.6799 16.2679 36.5312 16.2654ZM35.5924 28.1161V18.3383H37.4502V28.1161H35.5924Z" fill="white"/>
                    <path d="M47.2473 14.4272V19.8992C46.9734 19.4478 46.6109 19.0565 46.1816 18.749C45.5544 18.3122 44.8044 18.0862 44.0403 18.1037C43.221 18.0846 42.4145 18.3092 41.723 18.749C41.0533 19.192 40.5187 19.8112 40.178 20.5383C39.8104 21.3854 39.6207 22.2989 39.6207 23.2223C39.6207 24.1457 39.8104 25.0593 40.178 25.9064C40.5166 26.6375 41.0515 27.2603 41.723 27.7055C42.4145 28.1452 43.221 28.3698 44.0403 28.3508C44.8044 28.3682 45.5543 28.1422 46.1816 27.7055C46.617 27.3932 46.9832 26.9945 47.2575 26.5342L47.3256 28.1161H49.0856V14.4272H47.2473ZM45.9176 26.229C45.4936 26.5244 44.9872 26.6784 44.4705 26.669C43.9294 26.6785 43.398 26.5252 42.9451 26.229C42.4936 25.9263 42.1322 25.5074 41.899 25.0165C41.6351 24.4576 41.5045 23.8451 41.5176 23.2272C41.5047 22.6103 41.6317 21.9985 41.8892 21.4378C42.1168 20.9462 42.4753 20.5267 42.9256 20.2255C43.3784 19.9292 43.9099 19.7759 44.4509 19.7854C44.974 19.7741 45.4872 19.9281 45.9176 20.2255C46.3471 20.5339 46.6849 20.9528 46.8953 21.4378C47.3647 22.5846 47.3647 23.8698 46.8953 25.0165C46.685 25.5016 46.3472 25.9206 45.9176 26.229Z" fill="white"/>
                    <path d="M57.7584 26.229C57.2755 26.549 56.7046 26.7097 56.1257 26.6886C55.5651 26.6986 55.0119 26.5603 54.5221 26.2877C54.0468 26.0145 53.66 25.6106 53.4074 25.1241C53.1673 24.657 53.0322 24.1431 53.0118 23.6183H60.5452C60.5686 22.6133 60.3717 21.6155 59.9683 20.6947C59.6272 19.9191 59.0749 19.2551 58.3744 18.7783C57.6713 18.3212 56.8468 18.0861 56.0083 18.1037C55.1202 18.0871 54.2445 18.3136 53.4759 18.7588C52.7436 19.1911 52.1447 19.817 51.7452 20.5676C51.3336 21.3938 51.1194 22.3042 51.1194 23.2272C51.1194 24.1502 51.3336 25.0606 51.7452 25.8867C52.1427 26.6356 52.7378 27.2613 53.466 27.6957C54.2307 28.1416 55.1036 28.3683 55.9887 28.3508C56.6377 28.3599 57.2833 28.2539 57.8954 28.0378C58.4417 27.842 58.9435 27.5396 59.3718 27.1481C59.7875 26.7654 60.1318 26.3119 60.3887 25.8086L58.7852 25.0655C58.5415 25.5302 58.1893 25.9294 57.7584 26.229ZM53.5345 20.9587C53.8068 20.5614 54.1774 20.2414 54.6101 20.0299C55.0319 19.8183 55.4972 19.7078 55.9691 19.7072C56.4263 19.7009 56.8774 19.812 57.2794 20.0299C57.6741 20.2486 57.9993 20.5738 58.218 20.9685C58.417 21.3329 58.532 21.7371 58.5545 22.1517H53.1323C53.159 21.7256 53.2977 21.314 53.5345 20.9587Z" fill="white"/>
                    <path d="M68.5822 28.1161H70.8116L66.7887 22.3205L70.44 18.3385H68.1715L64.241 22.5829V14.4272H62.3831V28.1161H64.241V25.0992L65.5775 23.6415L68.5822 28.1161Z" fill="white"/>
                    <path d="M73.2169 16.2654C73.0699 16.266 72.9243 16.2359 72.7896 16.1769C72.6549 16.118 72.534 16.0315 72.4346 15.9231C72.329 15.8201 72.2451 15.6969 72.188 15.5609C72.1309 15.4248 72.1018 15.2787 72.1023 15.1311C72.0993 14.9833 72.1274 14.8364 72.1846 14.7C72.2419 14.5636 72.327 14.4407 72.4346 14.3392C72.5901 14.1827 72.7887 14.0761 73.0051 14.0331C73.2215 13.99 73.4458 14.0124 73.6493 14.0974C73.8529 14.1824 74.0265 14.3261 74.148 14.5103C74.2696 14.6944 74.3334 14.9105 74.3315 15.1311C74.3331 15.4274 74.2171 15.7123 74.0089 15.9231C73.9088 16.0332 73.7864 16.1207 73.6499 16.1797C73.5133 16.2387 73.3657 16.2679 73.2169 16.2654ZM72.2782 28.1161V18.3383H74.136V28.1161H72.2782Z" fill="white"/>
                    <path d="M81.3128 28.3506C80.4029 28.3679 79.505 28.1418 78.7118 27.6955C77.9652 27.2688 77.3523 26.6424 76.9421 25.8866C76.5243 25.0623 76.3065 24.1511 76.3065 23.227C76.3065 22.3029 76.5243 21.3918 76.9421 20.5675C77.3507 19.8137 77.9598 19.1877 78.7021 18.7586C79.4909 18.3271 80.3758 18.1018 81.2749 18.1035C82.174 18.1052 83.0581 18.3339 83.8452 18.7684C84.6013 19.2045 85.2001 19.8684 85.5563 20.6653L83.8745 21.3693C83.6357 20.8966 83.2656 20.5028 82.8087 20.2351C82.3247 19.9557 81.7737 19.8137 81.215 19.8243C80.663 19.8148 80.1199 19.9642 79.6505 20.2546C79.1877 20.5484 78.8155 20.9647 78.575 21.4572C78.3061 22.0078 78.1721 22.6144 78.1839 23.227C78.1712 23.8365 78.3054 24.4402 78.575 24.987C78.8225 25.481 79.2014 25.8972 79.6701 26.1897C80.1452 26.4847 80.6949 26.6374 81.2541 26.6297C81.8157 26.6398 82.3677 26.4837 82.8409 26.181C83.3141 25.8783 83.6873 25.4425 83.9136 24.9284L85.615 25.6128C85.2629 26.4427 84.6659 27.1454 83.9038 27.627C83.1281 28.1132 82.2282 28.3645 81.3128 28.3506Z" fill="white"/>
                    <path d="M93.6522 28.1161H95.8816L91.8587 22.3205L95.51 18.3385H93.2415L89.3108 22.5829V14.4272H87.4531V28.1161H89.3108V25.0992L90.6474 23.6415L93.6522 28.1161Z" fill="white"/>
                    <path d="M5.91008 34H5.88577C5.2032 33.998 4.52793 33.8594 3.89979 33.5923C3.27164 33.3252 2.70334 32.935 2.22837 32.4448L1.02686 31.215C0.364328 30.5317 -0.00426672 29.6162 3.72728e-05 28.6645C0.00434127 27.7127 0.381206 26.8006 1.04989 26.1233L1.06183 26.1115C1.38893 25.7817 1.77831 25.5201 2.20735 25.342C2.63638 25.1639 3.09653 25.0728 3.56107 25.074H3.57784C4.04725 25.0753 4.51165 25.1707 4.94362 25.3544C5.3756 25.5381 5.76641 25.8064 6.09301 26.1436L9.1557 29.2781C9.18209 29.1055 9.19525 28.9311 9.19507 28.7566C9.19644 28.3182 9.11104 27.8839 8.94378 27.4787C8.77653 27.0734 8.53074 26.7053 8.22057 26.3955L2.22169 20.3871C1.23705 19.396 0.684917 18.0553 0.686009 16.6582C0.687101 15.2611 1.24133 13.9212 2.22752 12.9316L2.2595 12.8995C2.99205 12.1677 3.92826 11.6739 4.94585 11.4825C5.96344 11.2912 7.01509 11.4112 7.96342 11.8268C8.04814 11.7288 8.1367 11.6337 8.22909 11.5414L8.26704 11.5035C8.74682 11.0248 9.31642 10.6456 9.94315 10.3875C10.5699 10.1295 11.2414 9.99783 11.9192 10C12.5969 10.0022 13.2676 10.1383 13.8927 10.4003C14.5177 10.6624 15.0848 11.0453 15.5615 11.5271L16.7335 12.7118C17.4041 13.3931 17.7793 14.3111 17.7778 15.2671C17.7763 16.2231 17.3982 17.14 16.7255 17.8192C16.3958 18.151 16.0037 18.414 15.5717 18.5932C15.1396 18.7723 14.6764 18.8639 14.2087 18.8628C13.741 18.8617 13.2782 18.7678 12.8471 18.5865C12.416 18.4053 12.0251 18.1403 11.697 17.807L8.62892 14.6945C8.59637 14.8845 8.57996 15.077 8.57989 15.2697C8.57787 15.709 8.66297 16.1442 8.83026 16.5504C8.99756 16.9565 9.24374 17.3254 9.55454 17.6358L15.5533 23.6442C16.5359 24.6334 17.0879 25.9709 17.089 27.3652C17.09 28.7595 16.5401 30.0978 15.559 31.0885C15.0825 31.5714 14.5146 31.9546 13.8885 32.2158C13.2623 32.477 12.5905 32.6109 11.9121 32.6098H11.8876C11.1815 32.6077 10.4835 32.4593 9.83754 32.1742C9.74856 32.2788 9.65513 32.3802 9.55724 32.4786C9.08069 32.9615 8.51278 33.3447 7.88661 33.6059C7.26044 33.8671 6.58854 34.0011 5.91008 34ZM3.56121 26.9891C3.34265 26.9888 3.12621 27.0319 2.92449 27.116C2.72277 27.2002 2.53981 27.3236 2.38628 27.4791L2.37435 27.4911C2.06419 27.8089 1.89038 28.2352 1.88996 28.6793C1.88953 29.1233 2.06252 29.55 2.37207 29.8684L3.57358 31.098C3.875 31.4091 4.23563 31.6566 4.63422 31.8261C5.03282 31.9956 5.46132 32.0836 5.89444 32.0848H5.90994C6.34044 32.0855 6.76677 32.0006 7.16409 31.8348C7.56141 31.6691 7.92175 31.4259 8.22412 31.1195C8.23592 31.1077 8.24757 31.0957 8.25908 31.0838C8.24942 31.074 8.23961 31.0642 8.23009 31.0544L4.74752 27.4902C4.59452 27.3323 4.41143 27.2065 4.20905 27.1205C4.00667 27.0344 3.7891 26.9897 3.56917 26.9891H3.56121ZM10.7967 30.4992C11.1492 30.6273 11.5213 30.6933 11.8963 30.6946H11.9118C12.3423 30.6953 12.7686 30.6103 13.1659 30.4446C13.5633 30.2789 13.9236 30.0357 14.226 29.7293C14.8485 29.1006 15.1975 28.2514 15.1968 27.3666C15.1961 26.4818 14.8458 25.6332 14.2223 25.0055L8.22355 18.9971C7.73375 18.5079 7.34582 17.9265 7.0822 17.2865C6.81857 16.6465 6.6845 15.9605 6.68773 15.2683C6.68722 14.6647 6.78975 14.0654 6.99091 13.4963C6.40933 13.2893 5.78099 13.2515 5.17877 13.3871C4.57656 13.5228 4.02515 13.8264 3.58851 14.2628L3.55638 14.2949C2.93057 14.9228 2.57887 15.7731 2.57818 16.6596C2.57748 17.5462 2.92786 18.3969 3.55269 19.0259L9.55157 25.0342C10.0403 25.5225 10.4277 26.1026 10.6912 26.7412C10.9548 27.3798 11.0894 28.0643 11.0872 28.7551C11.0886 29.3486 10.9904 29.9382 10.7967 30.4992ZM9.54758 12.9152C9.55213 12.9196 9.55654 12.9241 9.56094 12.9286L13.0364 16.4542C13.1901 16.6104 13.3733 16.7345 13.5753 16.8195C13.7774 16.9044 13.9942 16.9484 14.2134 16.9489C14.4325 16.9494 14.6496 16.9064 14.852 16.8225C15.0544 16.7385 15.2382 16.6153 15.3927 16.4598C15.7078 16.1416 15.8849 15.712 15.8856 15.2641C15.8863 14.8162 15.7105 14.3861 15.3964 14.0668L14.2244 12.8822C13.9219 12.5765 13.562 12.3334 13.1653 12.1671C12.7686 12.0008 12.343 11.9145 11.9129 11.9132C11.4827 11.9118 11.0566 11.9954 10.6588 12.1592C10.2611 12.323 9.89964 12.5637 9.5952 12.8676L9.55739 12.9054C9.55412 12.9086 9.55085 12.9119 9.54758 12.9152Z" fill="#FF8811"/>
                </g>
            </g>
        </g>
    </g>
    <defs>
        <clipPath id="clip0_26659_2301">
            <rect width="95.8815" height="44" fill="white"/>
        </clipPath>
        <clipPath id="clip1_26659_2301">
            <rect width="95.8815" height="44" fill="white"/>
        </clipPath>
        <clipPath id="clip2_26659_2301">
            <rect width="95.8815" height="44" fill="white"/>
        </clipPath>
        <clipPath id="clip3_26659_2301">
            <rect width="95.8815" height="24" fill="white" transform="translate(0 10)"/>
        </clipPath>
    </defs>
</svg>
